<?xml version="1.0" encoding="utf-8"?>
<!-- Generator: Adobe Illustrator 18.1.1, SVG Export Plug-In . SVG Version: 6.00 Build 0)  -->
<svg version="1.1" id="Layer_1" xmlns="http://www.w3.org/2000/svg" xmlns:xlink="http://www.w3.org/1999/xlink" x="0px" y="0px"
	 viewBox="0 0 256 256" style="enable-background:new 0 0 256 256;" xml:space="preserve">
<defs>
	<filter id="Adobe_OpacityMaskFilter" filterUnits="userSpaceOnUse" x="-81.6" y="-38.3" width="354.4" height="393.9">
		<feColorMatrix  type="matrix" values="1 0 0 0 0  0 1 0 0 0  0 0 1 0 0  0 0 0 1 0"/>
	</filter>
</defs>
<mask maskUnits="userSpaceOnUse" x="-81.6" y="-38.3" width="354.4" height="393.9" id="SVGID_1_">
	<g style="filter:url(#Adobe_OpacityMaskFilter);">
		<rect style="fill:#FFFFFF;" width="256" height="256"/>
	</g>
</mask>
<g style="mask:url(#SVGID_1_);">
	
		<radialGradient id="SVGID_2_" cx="179.2438" cy="174.731" r="264.4522" gradientTransform="matrix(0.8241 -5.865510e-04 -3.560299e-04 -0.7607 45.9773 208.7599)" gradientUnits="userSpaceOnUse">
		<stop  offset="0" style="stop-color:#FFFAD9"/>
		<stop  offset="5.682815e-02" style="stop-color:#FFF7D3"/>
		<stop  offset="0.1298" style="stop-color:#FDEFC3"/>
		<stop  offset="0.2117" style="stop-color:#FBE1A9"/>
		<stop  offset="0.3001" style="stop-color:#F8CD84"/>
		<stop  offset="0.3937" style="stop-color:#F4B455"/>
		<stop  offset="0.4902" style="stop-color:#F0961C"/>
		<stop  offset="0.5039" style="stop-color:#EF9113"/>
		<stop  offset="0.6726" style="stop-color:#D67424"/>
		<stop  offset="1" style="stop-color:#AF5417"/>
	</radialGradient>
	<rect x="-81.6" y="-38.3" style="fill:url(#SVGID_2_);" width="354.4" height="352"/>
	<g>
		<path d="M155,325.6c0,0-0.6,9.8,5.1,8.6s19.1,4.5,19.1,4.5l3.4,16.8h33.7l-7.6-31.9C208.6,323.6,162.3,314.7,155,325.6z"/>
		<path d="M227.4,324.1c0,0-3.4,11.2,2.2,14.6c5.6,3.4,5.6,3.4,5.6,3.4l-1.1,13.5h21.7v-14c0-6.5,1.7-7,0-18.7
			C255,317.2,227.4,324.1,227.4,324.1z"/>
		<g>
			
				<radialGradient id="SVGID_3_" cx="99.9054" cy="220.3076" r="72.3841" gradientTransform="matrix(1 0 0 -1 0 256)" gradientUnits="userSpaceOnUse">
				<stop  offset="0" style="stop-color:#FFFAD9"/>
				<stop  offset="2.010555e-03" style="stop-color:#FDF0CC"/>
				<stop  offset="7.888416e-03" style="stop-color:#FAD7AB"/>
				<stop  offset="1.445581e-02" style="stop-color:#F6C18E"/>
				<stop  offset="2.177192e-02" style="stop-color:#F4AF77"/>
				<stop  offset="3.016534e-02" style="stop-color:#F2A266"/>
				<stop  offset="4.027868e-02" style="stop-color:#F09859"/>
				<stop  offset="5.388613e-02" style="stop-color:#EF9352"/>
				<stop  offset="8.588960e-02" style="stop-color:#EF9150"/>
				<stop  offset="0.3252" style="stop-color:#CB7232"/>
				<stop  offset="0.3582" style="stop-color:#BB6A2C"/>
				<stop  offset="0.4505" style="stop-color:#94551F"/>
				<stop  offset="0.5462" style="stop-color:#744414"/>
				<stop  offset="0.6447" style="stop-color:#5B370B"/>
				<stop  offset="0.747" style="stop-color:#492D05"/>
				<stop  offset="0.8557" style="stop-color:#3E2801"/>
				<stop  offset="0.9816" style="stop-color:#3B2600"/>
			</radialGradient>
			<path style="fill:url(#SVGID_3_);" d="M187.5,78c10.6-6.8-44.2-17.3-44.2-17.3s-25.7,25.7-44.6,18.1S19.3,60.7,7.6,104.9
				c0,0,15.5-23.7,37.8-19.3c12.8,2.5,14.1,15.7,16,28.3h105.9C173.3,99.3,178.5,83.8,187.5,78z"/>
			
				<radialGradient id="SVGID_4_" cx="99.9048" cy="220.306" r="72.3834" gradientTransform="matrix(1 0 0 -1 0 256)" gradientUnits="userSpaceOnUse">
				<stop  offset="0" style="stop-color:#FFFAD9"/>
				<stop  offset="2.010555e-03" style="stop-color:#FDF0CC"/>
				<stop  offset="7.888416e-03" style="stop-color:#FAD7AB"/>
				<stop  offset="1.445581e-02" style="stop-color:#F6C18E"/>
				<stop  offset="2.177192e-02" style="stop-color:#F4AF77"/>
				<stop  offset="3.016534e-02" style="stop-color:#F2A266"/>
				<stop  offset="4.027868e-02" style="stop-color:#F09859"/>
				<stop  offset="5.388613e-02" style="stop-color:#EF9352"/>
				<stop  offset="8.588960e-02" style="stop-color:#EF9150"/>
				<stop  offset="0.3252" style="stop-color:#CB7232"/>
				<stop  offset="0.3681" style="stop-color:#AF622B"/>
				<stop  offset="0.4479" style="stop-color:#814820"/>
				<stop  offset="0.5306" style="stop-color:#593216"/>
				<stop  offset="0.6152" style="stop-color:#39200E"/>
				<stop  offset="0.7023" style="stop-color:#201208"/>
				<stop  offset="0.7927" style="stop-color:#0E0803"/>
				<stop  offset="0.8888" style="stop-color:#030201"/>
				<stop  offset="1" style="stop-color:#000000"/>
			</radialGradient>
			<path style="fill:url(#SVGID_4_);" d="M71.5,136.6c16.3,10,37.8-1.2,50.3,6s5.3,13.2,5.3,13.2s29.5-18.1,37-34.5
				c1.1-2.4,2.2-4.9,3.2-7.5H61.4C62.8,123.3,64.6,132.3,71.5,136.6z"/>
			
				<radialGradient id="SVGID_5_" cx="171.7683" cy="84.9587" r="64.866" gradientTransform="matrix(1 0 0 -1 0 256)" gradientUnits="userSpaceOnUse">
				<stop  offset="0" style="stop-color:#FFFAD9"/>
				<stop  offset="2.010555e-03" style="stop-color:#FDF0CC"/>
				<stop  offset="7.888416e-03" style="stop-color:#FAD7AB"/>
				<stop  offset="1.445581e-02" style="stop-color:#F6C18E"/>
				<stop  offset="2.177192e-02" style="stop-color:#F4AF77"/>
				<stop  offset="3.016534e-02" style="stop-color:#F2A266"/>
				<stop  offset="4.027868e-02" style="stop-color:#F09859"/>
				<stop  offset="5.388613e-02" style="stop-color:#EF9352"/>
				<stop  offset="8.588960e-02" style="stop-color:#EF9150"/>
				<stop  offset="0.3252" style="stop-color:#CB7232"/>
				<stop  offset="0.3582" style="stop-color:#BB6A2C"/>
				<stop  offset="0.4505" style="stop-color:#94551F"/>
				<stop  offset="0.5462" style="stop-color:#744414"/>
				<stop  offset="0.6447" style="stop-color:#5B370B"/>
				<stop  offset="0.747" style="stop-color:#492D05"/>
				<stop  offset="0.8557" style="stop-color:#3E2801"/>
				<stop  offset="0.9816" style="stop-color:#3B2600"/>
			</radialGradient>
			<path style="fill:url(#SVGID_5_);" d="M71.5,136.6c16.3,10,37.8-1.2,50.3,6s0.2,19.3,0.2,19.3s35.2-12.8,43.6-37.2
				c0.9-2.5,1.9-9.8,3-12.3l-107.1,0.3C62.8,122,64.6,132.3,71.5,136.6z"/>
		</g>
		<path d="M250.3,329.1c-8.9,0-20-1.2-22-1.5c-0.3-1.1-1-4.8,0.8-8.5c0.3-0.7,0.8-1.4,1.5-2l0.1-0.1v-0.1c0.8-2.9,1.9-10.6,1.9-10.9
			v-0.2l-0.1-0.1c0,0-2.1-3.8-2.6-5c-0.4-1,0.8-7,1.3-8.9c0.4-1.5-4.4-15.1-6.1-18.4c-1.3-2.4-4.1-5.5-6.3-8c-1.1-1.2-2-2.3-2.6-3.1
			c-1-1.3-1.8-8.5-2-18.8v-0.1l-0.1-0.1c-0.3-0.7-0.6-1.1-0.7-1.3c-0.1-0.1-0.4-0.7-0.7-3.9V238l-0.1-0.1
			c-5.5-7.5-13.1-18.1-16.9-23.7l-0.7-0.9l-0.2,1.1c-0.5,2.6-1.3,7.7-1.9,12c-0.8,5.6,2.1,9.7,5.5,14.4c0.3,0.5,0.7,1,1,1.5
			c3.8,5.5,5.8,9.5,5.5,15.4c-0.2,4-3,11.6-5.2,17.7c-1.1,3.1-2.1,5.8-2.5,7.3c-1.2,4.7,3.4,10.3,6.1,13.6l0.1,0.1
			c2.5,3.1,2.4,6.7,1.9,7.8c-0.4,1,0.1,2.5,0.9,4.7c0.4,1,0.8,2.2,1.1,3.4c1,3.8,1.4,10,1,11.1c-0.7,0.8-10,2-14.7,2
			c-0.3,0-0.5,0-0.8,0c-0.4,0-0.8,0-1.3,0c-3.6,0-9.6,0.6-14.4,1l-0.8,0.1c-0.6,0.1-1.4,0.1-2.4,0.1c-5.9,0-16.1-1.2-18.3-1.4
			c1.2-9.3,7.5-9.8,11.3-10c1-0.1,1.7-0.1,2.2-0.3c2.2-1,12.3-12.5,14.4-16.5c0.9-1.7,1.2-5.9,0.8-12.5c-0.3-5.7-1-11.4-1.3-13.1
			c-0.5-3.4-5.1-17.4-5.3-18v-0.1l0,0c0-0.1-4.8-7.8-6.6-11.3c-1.7-3.5-1.1-15.9-1.1-16v-0.1l-3.2-7c0-0.1-4-10.5-5.6-15.3
			s-2.8-15.1-2.8-19.7c0-1,0.1-2.3,0.3-4.1c0.1-0.6,0.1-1.2,0.2-1.8l0,0v-0.9h-0.5c-1-3.3-1-11.8-0.8-13c0.1-0.9-0.4-8.8-0.7-13.4
			v-0.2l-0.1-0.1c-0.8-0.7-1-0.9-1-1c-0.3-0.3,0-1.7,0.3-2.5v-0.1v-0.1c0-0.1-0.3-7.7-0.1-9.8c0.1-1.4,0.6-2.6,0.8-3.1l0.2-0.4
			l-0.4-0.2c-1.1-0.7-0.7-4.9-0.1-7c0.2-0.6,0.7-1.2,1.7-1.9l0.2-0.1v-0.1c0.1-0.1,0.3-0.2,0.4-0.2l-0.3-0.6
			c0.4-3.6,0.8-7.7,0.6-8.3c-0.2-0.6-3.7-9.1-5.8-14.1l-0.3-0.7l-0.9,1.2c-1.6,2-5.3,6.7-11.6,6.7c-3.7,0-7.8-1.6-12.2-4.8h-0.1
			h-0.1c-0.9-0.3-1.7-0.9-2.3-1.6c-0.3-0.4-0.5-0.8-0.5-1.1c-0.1-0.5,0.5-4,1-6.6c0.3-2,0.7-3.9,0.8-4.8c0.2-1.7,0.4-3.4,2.9-7
			l0.1-0.1v-0.2c-0.2-1.4-0.7-8.6,6.1-13.2c0.1-0.1,0.4-0.2,0.4-0.2l0.7-0.8l0.1-0.2l-0.1-0.2c-0.3-0.9-0.2-2,0.2-3.4
			c0.3-1,0.7-2,1.4-3c0.5-0.8,0.8-1.3,0.8-1.3s2.3-2.9,5.7-5c0.8-0.6,1.7-1,2.7-1.4c0.8-0.3,1.5-0.5,2.2-0.7
			c0.9-0.2,1.8-0.3,2.8-0.3c4.4,0,8.4,1.7,9.1,2l0.2,0.1l0.2-0.1c4.2-2.3,10.9-4.7,12.8-5.4l0.2-0.1l0.1-0.1
			c1.5-2.6,2.6-5.4,3.1-7.2l0.1-0.2l-0.9-1.2l-0.3-6.5l-0.2-0.1c-0.7-0.6-1.7-1.5-2.4-2.4c-1.1-1.4-0.4-4.6,0.2-5.5
			c0.1-0.1,0.2-0.1,0.2-0.1c0.2,0,0.5,0.2,0.8,0.5l1,0.9l-0.2-1.3c-0.4-2.6-0.7-4.2-0.9-4.8c-0.3-1-0.2-3.6-0.2-4.5
			c0.2-2.8,4.3-6.3,4.3-6.3s2.3-1.7,6.5-2.2c0.6-0.1,1.3-0.1,1.9-0.1c0.5,0,1.1,0,1.6,0.1c6.7,0.6,9.2,5.9,9.4,9.3
			c0,1,0.1,4.8,0.1,7.8v1.1l0.8-0.7c0.4-0.4,0.7-0.5,0.9-0.5c0,0,0.1,0,0.2,0.2c0.6,1,1.2,3.5,0.2,4.9c-0.7,0.9-1.3,1.8-1.7,2.5
			l-0.1,0.1V34c0.2,1.1,0.4,2.4,0.6,3.4c0.2,0.9,0.3,1.8,0.4,2.2l0,0c0,0,0,0,0,0.1v0.2l0.2,0.2c1.5,1.6,4.2,4.5,5.5,6.1l0.2,0.2
			h0.3c1.4-0.2,4.9-0.7,7.8-0.8h0.1h0.1c3.1-1.6,6.2-2.4,9.3-2.4c3.8,0,7.6,1.2,11.2,3.6c0.5,0.3,0.9,0.6,1.3,0.9
			c2.1,1.3,3.7,2.6,4.7,4c1.5,1.7,2.3,3.3,2.8,5.7l0,0l0,0c0.2,0.5,0.4,0.9,0.5,1.3c2.2,6.4,3.1,18.2-16.4,25.6h-0.1l-0.1,0.1
			c-2.3,2.9-7.9,9.8-11.6,12.9c-0.7,0.6-1.3,1.1-2,1.7c-2.1,1.8-4.2,3.6-6.4,5.1h-0.1v0.1c-3.1,4.1-4.8,6.6-4.9,7.4v0.1v0.1
			c0,0.1,1,5.4,0.4,9.9v0.3l0.3,0.2c1.6,0.9,1.6,4.3,1,7.2l-0.1,0.2l0.2,0.2c1.7,1.7,3.4,11.8,4,15.6v0.2l0.2,0.1
			c0.7,0.5,0.7,2.4,0.6,3.3l-0.2,0.1c0.4,1.1,1.1,3,1.8,5.1c1.8,5.1,3.1,8.8,3.7,9.5c0,0,0.1,0.1,0.1,0.2l0.3,0.4l0.1-0.1
			c0,0,0,0.1,0.1,0.1c0.4,0.6,0.9,1.5,1.6,2.7c1.8,2.7,5.8,9.6,6.2,14.2c0.3,3.7,0.1,4.5-0.1,5.1c0,0.1-0.1,0.2-0.1,0.4l0,0v1.1l0,0
			c0.1,1,0.5,3.8,0.9,7.2c0.9,6.7,2.1,15.8,2.7,19.9c0.7,4.6,2.2,8.7,3.2,11.5c0.5,1.4,0.9,2.4,1,3.1c0.2,1.2,1.3,4.2,2.1,6.4v0.1
			l0,0c0.3,0.4,0.6,0.9,0.9,1.3l0,0l0,0c2.7,3.1,9.4,12,9.7,14.3c0.2,1.7-0.4,5.7-0.9,9.3c-0.3,2.3-0.7,4.5-0.7,5.8
			c-0.2,3.4,0.8,13,1.5,15.3c0.7,2.4,3.3,7.7,3.9,8.4c0.1,0.1,0.2,0.3,0.4,0.6c3.4,4.8,5.3,7.8,5.5,9c0.2,1.4-0.1,3.3-0.3,4.2
			c-0.1,0.6-0.2,1-0.2,1v0.1v0.1c0.1,0.4,2.1,8.7,2.5,10.1c0.2,0.7,0.2,1.1,0.2,1.3v0.2l0.1,0.1c-0.1,5.8-0.6,16.9-0.4,18.4
			C253.9,335.6,254.5,329.1,250.3,329.1L250.3,329.1z"/>
		<path d="M194.2,64.8c0,0-18.6,10.6-9.4,31.9c0,0-6.7-1-10.1-4.2c-3.5-3.2-7.2-6.7-7.2-6.7s-8.9-9.4-11.4-9.6s-9.6,1-9.6,1
			s2-3.5,4-4.9c2-1.5,6.4-4.5,6.4-4.5l16.6-1.7l10.4-0.2L194.2,64.8z"/>
		<path d="M149.2,75.1c0,0,5.3-4,7.9-4.3c2.6-0.3,14.5-1,14.5-1l-2.6-1l18.5,1.6c0,0-6.3,8.9-5.9,11.5c0.3,2.6,1.7,14.5,1.7,14.5
			s-9.9-3.6-12.9-7.3c-3-3.6-7.9-8.9-7.9-8.9l-6.3-4.3C156.1,76.1,145.3,78.1,149.2,75.1z"/>
		<path d="M139,76.8c0,0-1.6-8.6,4-9.6c0,0,5.3-4.9,10.2-4.9c0,0,3-3.3,9.6-1.3s13.2,4,13.2,4s18.4-9,24-10.6s8.2-2.3,9.2-0.3
			c0,0,0.4,3.7-0.4,3.9c-9.2,2-10.5,6.7-10.5,6.7L179.8,66l-7.9-0.3l-15.2,2.1l-4.9,3.5l-4.3,2.3l-1.2,3.6L139,76.8z"/>
		<path d="M156.2,62.9l-0.7-2c0,0-6.3-2.3-1.3-2.6c4.9-0.3,17.5,0,17.5,0s5.3-3.6,5.6-4.6s2.6-4,2.6-4l4.2-0.8c0,0-0.2,1.6,3.2,1.2
			c3.4-0.4,6-0.2,6.7-0.6c0.7-0.5,1.9-1.9,1.9-1.9l6.4-1.9l2.6,3.3l6.6-0.3l-2.6,1.3c0,0-12.9,1.3-16.2,3.6s-13.2,7.9-16.8,11.2
			c0,0-8.9-6.6-16.2-4.9C159.8,60,157.2,60.6,156.2,62.9z"/>
		<path d="M185.2,74.2c0,0,14.3,2.8,14.8,3s0,0.7-0.2,0.7c-11.7,0,14.1,7.1,5.8,2.3c-2.3-1.3,3,4.3,3,4.3s4.6-3.1,4.5-4
			c-0.2-0.8,0-2.3,0.7-3s4.8-3.8,5.3-4.1c0.5-0.3,2.1-1.8,2.1-1.8s-7.7-2.3-7.3-3.1c0.5-0.8,5.8-5.8,7.6-5.9c1.8-0.2,4.6-2,5.1-2.8
			s1-4.6,3.3-6.4c2.3-1.8,8.2-4.6,8.2-4.6s3.6,2.6,4.5,4s1.4,3.7,1.4,3.7s2.1,4,2,4.5c-0.2,0.5-0.3,7.4-2.1,10.7
			c-1.8,3.3-7.6,8.9-10.2,9.9c-2.6,1-6.8,2.6-6.8,2.6s-8.8,8.6-15.6,7.9c0,0-0.8,1.6-2.6,2.1s-5.3,1.5-5.8,1.5s-5.9,1.5-6.6,1.5
			c-0.7,0-11.2,0.5-12.2-1C183,94.6,176.8,82.6,185.2,74.2z"/>
		<path d="M152.2,76.1c0,0,1-1.6,3.3-2.3c2.3-0.7,10.9-0.8,15.2-0.5s3-1.2,3-1.2l11.2,2.3c0,0-3,6.9-3,8.6c0,1.6,0,11,2.1,13
			s0.7,0.6,0.7,0.6s-6.3-0.9-10.1-4.2c-3.8-3.3-10.6-10.1-10.6-10.1s-4.8-4.6-5.4-5.1C158,76.8,153.7,75.6,152.2,76.1z"/>
		<path d="M149.6,76.6c0,0,5.4,0.3,7.9,2.3s8.1,7.1,8.1,7.1l1.3-2.5c0,0-8.1-6.4-9.6-6.9S149.6,76.6,149.6,76.6z"/>
		<path d="M142,76.8c0,0,0.7-9.2,8.2-10.6c0,0,5.3-4.9,9.6-3.6c4.3,1.3,13.6,3.4,13.6,3.4l12.1-3.7c0,0,21.1-9.2,23.7-6.9l0.7,2.3
			c0,0-10.2,2.3-11.5,6.9l-6.6,0.3l-11.9,1l-17.5,0.7l-5.6,1.2l-7.9,5.4l-2.5,4L142,76.8z"/>
		<path d="M172.5,60.9c0,0,4.9-3,6.6-4.9c1.6-2,4-6.3,4-6.3s0.4,0.1,3.2,0.1c2.8-0.1,7.3,0,7.3,0l2-1.7l3.2-1.5l-0.5,4.8
			c0,0-19.5,8.1-21.6,12.1L172.5,60.9z"/>
		
			<radialGradient id="SVGID_6_" cx="231.7289" cy="140.522" r="45.0567" gradientTransform="matrix(1 0 0 -1 0 256)" gradientUnits="userSpaceOnUse">
			<stop  offset="0" style="stop-color:#FFFAD9"/>
			<stop  offset="2.010555e-03" style="stop-color:#FDF0CC"/>
			<stop  offset="7.888416e-03" style="stop-color:#FAD7AB"/>
			<stop  offset="1.445581e-02" style="stop-color:#F6C18E"/>
			<stop  offset="2.177192e-02" style="stop-color:#F4AF77"/>
			<stop  offset="3.016534e-02" style="stop-color:#F2A266"/>
			<stop  offset="4.027868e-02" style="stop-color:#F09859"/>
			<stop  offset="5.388613e-02" style="stop-color:#EF9352"/>
			<stop  offset="8.588960e-02" style="stop-color:#EF9150"/>
			<stop  offset="0.3252" style="stop-color:#CB7232"/>
			<stop  offset="0.3681" style="stop-color:#AF622B"/>
			<stop  offset="0.4479" style="stop-color:#814820"/>
			<stop  offset="0.5306" style="stop-color:#593216"/>
			<stop  offset="0.6152" style="stop-color:#39200E"/>
			<stop  offset="0.7023" style="stop-color:#201208"/>
			<stop  offset="0.7927" style="stop-color:#0E0803"/>
			<stop  offset="0.8888" style="stop-color:#030201"/>
			<stop  offset="1" style="stop-color:#000000"/>
		</radialGradient>
		<path style="fill:url(#SVGID_6_);" d="M176.6,93.9c-0.9-0.3-1.8-0.9-2.7-1.6c-0.6-0.8-0.8-1.5-0.8-1.5c-0.1,0.1-0.2,0.2-0.3,0.4
			c-2.2-2.1-4-4.6-4-4.6l-9.7,8.4l-4.9,5.4l-0.2-0.6l-1.5,1.7c0,0,5.8,14,6.1,14.7c0.2,0.6-0.5,7-0.7,8.7c0.4-0.2,0.8-0.5,1.2-0.7
			v0.5l7.5-2.6c0,0,15-3,15.7-3.1c0.1,0,0.3,0,0.5-0.1v-23C180.9,95.5,178.5,94.7,176.6,93.9z"/>
		
			<radialGradient id="SVGID_7_" cx="125.1667" cy="120.6285" r="52.0506" gradientTransform="matrix(1 0 0 -1 0 256)" gradientUnits="userSpaceOnUse">
			<stop  offset="0" style="stop-color:#FFFAD9"/>
			<stop  offset="2.010555e-03" style="stop-color:#FDF0CC"/>
			<stop  offset="7.888416e-03" style="stop-color:#FAD7AB"/>
			<stop  offset="1.445581e-02" style="stop-color:#F6C18E"/>
			<stop  offset="2.177192e-02" style="stop-color:#F4AF77"/>
			<stop  offset="3.016534e-02" style="stop-color:#F2A266"/>
			<stop  offset="4.027868e-02" style="stop-color:#F09859"/>
			<stop  offset="5.388613e-02" style="stop-color:#EF9352"/>
			<stop  offset="8.588960e-02" style="stop-color:#EF9150"/>
			<stop  offset="0.3252" style="stop-color:#CB7232"/>
			<stop  offset="0.3681" style="stop-color:#AF622B"/>
			<stop  offset="0.4479" style="stop-color:#814820"/>
			<stop  offset="0.5306" style="stop-color:#593216"/>
			<stop  offset="0.6152" style="stop-color:#39200E"/>
			<stop  offset="0.7023" style="stop-color:#201208"/>
			<stop  offset="0.7927" style="stop-color:#0E0803"/>
			<stop  offset="0.8888" style="stop-color:#030201"/>
			<stop  offset="1" style="stop-color:#000000"/>
		</radialGradient>
		<path style="fill:url(#SVGID_7_);" d="M176.6,93.9c-0.9-0.3-1.8-0.9-2.7-1.6c-0.6-0.8-0.8-1.5-0.8-1.5c-0.1,0.1-0.2,0.2-0.3,0.4
			c-2.2-2.1-4-4.6-4-4.6l-9.7,8.4l-4.9,5.4l-0.2-0.6l-1.5,1.7c0,0,5.8,14,6.1,14.7c0.2,0.6-0.5,7-0.7,8.7c0.4-0.2,0.8-0.5,1.2-0.7
			v0.5l7.5-2.6c0,0,15-3,15.7-3.1c0.1,0,0.3,0,0.5-0.1v-23C180.9,95.5,178.5,94.7,176.6,93.9z"/>
		
			<radialGradient id="SVGID_8_" cx="166.92" cy="216.2357" r="20.4857" gradientTransform="matrix(1 0 0 -1 0 256)" gradientUnits="userSpaceOnUse">
			<stop  offset="0" style="stop-color:#FFFAD9"/>
			<stop  offset="2.010555e-03" style="stop-color:#FDF0CC"/>
			<stop  offset="7.888416e-03" style="stop-color:#FAD7AB"/>
			<stop  offset="1.445581e-02" style="stop-color:#F6C18E"/>
			<stop  offset="2.177192e-02" style="stop-color:#F4AF77"/>
			<stop  offset="3.016534e-02" style="stop-color:#F2A266"/>
			<stop  offset="4.027868e-02" style="stop-color:#F09859"/>
			<stop  offset="5.388613e-02" style="stop-color:#EF9352"/>
			<stop  offset="8.588960e-02" style="stop-color:#EF9150"/>
			<stop  offset="0.3252" style="stop-color:#CB7232"/>
			<stop  offset="0.3681" style="stop-color:#AF622B"/>
			<stop  offset="0.4479" style="stop-color:#814820"/>
			<stop  offset="0.5306" style="stop-color:#593216"/>
			<stop  offset="0.6152" style="stop-color:#39200E"/>
			<stop  offset="0.7023" style="stop-color:#201208"/>
			<stop  offset="0.7927" style="stop-color:#0E0803"/>
			<stop  offset="0.8888" style="stop-color:#030201"/>
			<stop  offset="1" style="stop-color:#000000"/>
		</radialGradient>
		<path style="fill:url(#SVGID_8_);" d="M180,10.4c0,0-4.3,3.6-4.5,6.7c0,0-0.2,3.4,0.2,4.7c0.2,0.8,0.6,3.1,0.9,4.8
			c-0.4-0.4-1.3-0.9-1.8-0.2c-0.7,1-1.4,4.5-0.2,6c0.7,0.9,1.8,1.9,2.5,2.5l0.3,6.5c0,0,0.3,0.4,0.9,1.1c-0.5,1.6-1.5,4.5-3.1,7.1
			c-2.4,0.9-13.3,4.8-15.8,7.5c0,0-1.6,1.2,0.2,0.4c-4.7,3-6.4,4.9-6.4,4.9c-11.1,19.6,27.2,8.9,27.2,8.9l6.4-3v-60
			C182.4,8.6,180,10.4,180,10.4z"/>
		
			<radialGradient id="SVGID_9_" cx="213.2021" cy="223.8124" r="23.7656" gradientTransform="matrix(1 0 0 -1 0 256)" gradientUnits="userSpaceOnUse">
			<stop  offset="0" style="stop-color:#FFFAD9"/>
			<stop  offset="2.010555e-03" style="stop-color:#FDF0CC"/>
			<stop  offset="7.888416e-03" style="stop-color:#FAD7AB"/>
			<stop  offset="1.445581e-02" style="stop-color:#F6C18E"/>
			<stop  offset="2.177192e-02" style="stop-color:#F4AF77"/>
			<stop  offset="3.016534e-02" style="stop-color:#F2A266"/>
			<stop  offset="4.027868e-02" style="stop-color:#F09859"/>
			<stop  offset="5.388613e-02" style="stop-color:#EF9352"/>
			<stop  offset="8.588960e-02" style="stop-color:#EF9150"/>
			<stop  offset="0.3252" style="stop-color:#CB7232"/>
			<stop  offset="0.3681" style="stop-color:#AF622B"/>
			<stop  offset="0.4479" style="stop-color:#814820"/>
			<stop  offset="0.5306" style="stop-color:#593216"/>
			<stop  offset="0.6152" style="stop-color:#39200E"/>
			<stop  offset="0.7023" style="stop-color:#201208"/>
			<stop  offset="0.7927" style="stop-color:#0E0803"/>
			<stop  offset="0.8888" style="stop-color:#030201"/>
			<stop  offset="1" style="stop-color:#000000"/>
		</radialGradient>
		<path style="fill:url(#SVGID_9_);" d="M210.9,56.3l2.4-5.6l0.4-4.5l3.2-1.6c-3.2-0.2-7.8,0.4-9.7,0.7c-1.4-1.7-4-4.5-5.6-6.2
			c0-0.1,0-0.1,0-0.2c-0.1-1-0.6-3.5-0.9-5.6c0.4-0.7,1-1.6,1.6-2.4c1.2-1.6,0.5-4.4-0.2-5.5c-0.5-0.8-1.4-0.1-1.8,0.3
			c0-3.2-0.1-6.8-0.1-7.8c-0.1-4-3.1-9.2-9.8-9.8c-1.3-0.1-2.6-0.1-3.7,0v60l16.5-7.8L210.9,56.3z M198.4,14.5
			c0.2,0.4,0.4,0.8,0.6,1.2C198.8,15.3,198.6,14.9,198.4,14.5z"/>
		<path d="M209.8,52.6c0,0-2.1,3.6-1.2,5.9l2-0.7C210.5,57.8,209.6,55.8,209.8,52.6z"/>
		
			<radialGradient id="SVGID_10_" cx="195.8298" cy="223.3703" r="25.0259" gradientTransform="matrix(1 0 0 -1 0 256)" gradientUnits="userSpaceOnUse">
			<stop  offset="0" style="stop-color:#FFFAD9"/>
			<stop  offset="1.213081e-02" style="stop-color:#FEF6D3"/>
			<stop  offset="2.771646e-02" style="stop-color:#FCE9C3"/>
			<stop  offset="4.518902e-02" style="stop-color:#F9D5A9"/>
			<stop  offset="6.403458e-02" style="stop-color:#F5B984"/>
			<stop  offset="8.378893e-02" style="stop-color:#F09555"/>
			<stop  offset="8.588960e-02" style="stop-color:#EF9150"/>
			<stop  offset="0.3252" style="stop-color:#CB7232"/>
			<stop  offset="0.3681" style="stop-color:#AF622B"/>
			<stop  offset="0.4479" style="stop-color:#814820"/>
			<stop  offset="0.5306" style="stop-color:#593216"/>
			<stop  offset="0.6152" style="stop-color:#39200E"/>
			<stop  offset="0.7023" style="stop-color:#201208"/>
			<stop  offset="0.7927" style="stop-color:#0E0803"/>
			<stop  offset="0.8888" style="stop-color:#030201"/>
			<stop  offset="1" style="stop-color:#000000"/>
		</radialGradient>
		<path style="fill:url(#SVGID_10_);" d="M173.3,65.7c0,0,6.4-6.6,15.6-10.9c9.1-4.3,17.6-7.2,21.3-3.5c0,0-4.6,4.5-34.3,14.1
			L173.3,65.7z"/>
		<path d="M149.4,73c0,0-1.5-6.9,8-12.9c0,0-8.3,1.5-10,14.2L149.4,73z"/>
		
			<radialGradient id="SVGID_11_" cx="176.839" cy="239.539" r="55.8604" gradientTransform="matrix(1 0 0 -1 0 256)" gradientUnits="userSpaceOnUse">
			<stop  offset="0" style="stop-color:#FFFAD9"/>
			<stop  offset="6.393032e-03" style="stop-color:#FEF6D3"/>
			<stop  offset="1.460729e-02" style="stop-color:#FCE9C3"/>
			<stop  offset="2.381760e-02" style="stop-color:#F7D5A9"/>
			<stop  offset="3.374985e-02" style="stop-color:#F1B884"/>
			<stop  offset="4.416035e-02" style="stop-color:#EA9455"/>
			<stop  offset="4.646640e-02" style="stop-color:#E88B4A"/>
			<stop  offset="8.588960e-02" style="stop-color:#EF9150"/>
			<stop  offset="0.3252" style="stop-color:#CB7232"/>
			<stop  offset="0.3681" style="stop-color:#AF622B"/>
			<stop  offset="0.4479" style="stop-color:#814820"/>
			<stop  offset="0.5306" style="stop-color:#593216"/>
			<stop  offset="0.6152" style="stop-color:#39200E"/>
			<stop  offset="0.7023" style="stop-color:#201208"/>
			<stop  offset="0.7927" style="stop-color:#0E0803"/>
			<stop  offset="0.8888" style="stop-color:#030201"/>
			<stop  offset="1" style="stop-color:#000000"/>
		</radialGradient>
		<path style="fill:url(#SVGID_11_);" d="M160.3,60.1c0,0-24.1,13.8,13.6,6.7l2.7-3.3C176.6,63.5,166.5,56.7,160.3,60.1z"/>
		<path style="fill:#FF1F98;" d="M153.5,101.2c0,0,12.4-11.1,15.7-14.1l-0.9-1.1l-9.6,8.4L153.5,101.2z"/>
		<path d="M166.2,136.8c0.1-0.3,0.6,9.2,0.6,9.6c0.1,0.4,2.7,16,6.9,19.3c0,0-2.5,0.1-5.1-7.7C166.1,150.3,164.6,140.6,166.2,136.8z
			"/>
		<path d="M179.2,162l3.8-3.7c0,0,8-9.4,16.9-11.7c0,0-11.6,2.5-17.5,11.1L179.2,162z"/>
		<path d="M209.9,147.4c0.5,0.3,4.8,14.1,5.9,15.4c1.1,1.4,8.9,12.6,8.5,18.7c-0.4,6.1-0.5,23.7-0.4,25.3c0,0-0.9-5.8-1.2-9.8
			c-0.4-3.9,0.6-14.4-0.1-17.6c-0.7-3.3-8-16.1-8.4-16.8c-0.7-1.2-6.4-15.9-6.4-15.9L209.9,147.4z"/>
		<path d="M205.3,157.9c0,0,0.1,8.1,1.8,12.6c0.4,1,0.9,1.9,1.5,2.4C208.6,172.9,201.3,163.9,205.3,157.9z"/>
		<path d="M210.9,177.8c-0.3-0.5,14.8,20.6,10.2,42.3C221.1,220.1,221.8,196,210.9,177.8z"/>
		<path d="M191.8,182.5c0,0,6.6,16.8,7.1,21.3s2.6,14.3,5.3,16.1c2.6,1.8,7.1,5.4,7.1,5.4s-8.6-3.1-10.1-7.6s-3.1-13.4-3.6-15
			C197.1,201.1,191.8,182.5,191.8,182.5z"/>
		<path d="M214.5,201.1c0,0,4.3,19.3,3.8,21.5C218.3,222.6,219.5,209.6,214.5,201.1z"/>
		<path d="M156.3,150.7c0,0,1,13.5,0.8,14.7s-0.2,11.4,1.2,14l1.2-5.5c0,0-1.4-4.5-1.2-6.5s-0.2-14.3-0.2-14.3L156.3,150.7z"/>
		<path d="M167.5,316.2c0,0,6.2,0.8,9.9,4.6c0,0-5.4-6.8-7.7-6.2C167.5,315.1,167.5,316.2,167.5,316.2z"/>
		<path d="M237.7,312.9c0,0-6.9,1.4-9.2,6c-2.2,4.6-0.8,9.2-0.8,9.2s20.1,4.7,27.5,2.2c0,0,1.2-9.9,0.2-15.2l-4.2-1.9
			c0,0,3,2.7,3.5,4.3c0.5,1.6,2.7,8.1,2.7,8.1s2.2,2.4-27.7,0C229.8,325.7,228.1,316.7,237.7,312.9z"/>
		<path d="M239.6,312c0,0,7.2-1.2,10.3,1.5C249.9,313.5,248,308.6,239.6,312z"/>
		<polygon points="204.8,160 207,158 204.8,163.2 		"/>
		<polygon points="205.5,165.7 208.3,159.5 204.6,164.7 		"/>
		<polygon points="205.5,168.1 208.5,162.9 206.8,169.6 		"/>
		<polygon points="193.7,212.1 191.2,217 193.4,214.6 		"/>
		<polygon points="180.2,178.2 182.7,179.2 183.7,181.5 		"/>
		<polygon points="181.9,186 185.2,189.2 186.8,194.6 		"/>
		<polygon points="183.9,192.9 188.5,197.5 189.8,202.5 		"/>
		<polygon points="185.8,199.4 191.3,206.2 193.8,211.4 193.9,213.4 		"/>
		<polygon points="188.7,207.2 193.8,215.7 192.9,218.1 		"/>
		<polygon style="fill:#FF1F98;" points="142.5,74.2 144.9,76.3 145.9,76.3 		"/>
		<polygon style="fill:#FF1F98;" points="144.9,73.7 147.1,75.8 147.4,74.4 		"/>
		<polygon style="fill:#FF1F98;" points="141.3,75.6 142.3,76.6 143.5,76.3 		"/>
		
			<radialGradient id="SVGID_12_" cx="249.0246" cy="159.3169" r="40.3822" gradientTransform="matrix(1 0 0 -1 0 256)" gradientUnits="userSpaceOnUse">
			<stop  offset="0" style="stop-color:#FFFAD9"/>
			<stop  offset="2.010555e-03" style="stop-color:#FDF0CC"/>
			<stop  offset="7.888416e-03" style="stop-color:#FAD7AB"/>
			<stop  offset="1.445581e-02" style="stop-color:#F6C18E"/>
			<stop  offset="2.177192e-02" style="stop-color:#F4AF77"/>
			<stop  offset="3.016534e-02" style="stop-color:#F2A266"/>
			<stop  offset="4.027868e-02" style="stop-color:#F09859"/>
			<stop  offset="5.388613e-02" style="stop-color:#EF9352"/>
			<stop  offset="8.588960e-02" style="stop-color:#EF9150"/>
			<stop  offset="0.3252" style="stop-color:#CB7232"/>
			<stop  offset="0.3681" style="stop-color:#AF622B"/>
			<stop  offset="0.4479" style="stop-color:#814820"/>
			<stop  offset="0.5306" style="stop-color:#593216"/>
			<stop  offset="0.6152" style="stop-color:#39200E"/>
			<stop  offset="0.7023" style="stop-color:#201208"/>
			<stop  offset="0.7927" style="stop-color:#0E0803"/>
			<stop  offset="0.8888" style="stop-color:#030201"/>
			<stop  offset="1" style="stop-color:#000000"/>
		</radialGradient>
		<path style="fill:url(#SVGID_12_);" d="M245.6,57.9c-0.2-0.5-0.3-0.9-0.5-1.4c-0.5-1.1-0.9-1.9-1.2-2.4c-1-4.2-5-6.8-8.9-8.8
			c-0.9-0.8-2.1-1.4-3.7-1.6c-4.6-1.6-7.9-1.2-12.1-0.5c-2.5,0.4-4.4,1.5-5.8,2.6c-0.8,0.6-1.5,1.2-2,2c-0.2,0.2-0.2,0.3-0.2,0.3
			s0,0,0.1,0c-2.1,3.4-1.5,8.1-1.3,9.2c-4-0.1-6.8,0.5-14.5,6.9l-1.4,0.2l-14.5,1.3c-7.6,0-13.2-0.4-18.7,1.3
			c-7.7,2.5-13.6,8.6-13.6,8.6l2.5,0.8c0,0,4.1-0.5,7.5,0.3c2.7,2.1,8.4,6.9,9.9,9.4c1.9,3.1,7.3,7.5,7.3,7.5
			c18.7,9.3,32.3,1.7,32.3,1.7c1.1-0.1,2.7-1.1,4.1-2.3c7.7-1,12.5-4.6,15.4-8.1c0.1-0.1,0.2-0.1,0.3-0.2
			C248.9,77.5,247.9,64.6,245.6,57.9z M233.7,80.5c-0.2,0.1-0.5,0.3-0.7,0.4C233.2,80.7,233.5,80.6,233.7,80.5z M174.6,91.8
			c2.1,1.2,4.1,2.3,6,3.1c-1.8-0.6-3.2-1.2-3.8-1.5C176.1,93,175.4,92.5,174.6,91.8z"/>
		
			<radialGradient id="SVGID_13_" cx="163.8492" cy="133.0075" r="26.44" gradientTransform="matrix(1 0 0 -1 0 256)" gradientUnits="userSpaceOnUse">
			<stop  offset="0" style="stop-color:#FFFAD9"/>
			<stop  offset="2.010555e-03" style="stop-color:#FDF0CC"/>
			<stop  offset="7.888416e-03" style="stop-color:#FAD7AB"/>
			<stop  offset="1.445581e-02" style="stop-color:#F6C18E"/>
			<stop  offset="2.177192e-02" style="stop-color:#F4AF77"/>
			<stop  offset="3.016534e-02" style="stop-color:#F2A266"/>
			<stop  offset="4.027868e-02" style="stop-color:#F09859"/>
			<stop  offset="5.388613e-02" style="stop-color:#EF9352"/>
			<stop  offset="8.588960e-02" style="stop-color:#EF9150"/>
			<stop  offset="0.3252" style="stop-color:#CB7232"/>
			<stop  offset="0.3681" style="stop-color:#AF622B"/>
			<stop  offset="0.4479" style="stop-color:#814820"/>
			<stop  offset="0.5306" style="stop-color:#593216"/>
			<stop  offset="0.6152" style="stop-color:#39200E"/>
			<stop  offset="0.7023" style="stop-color:#201208"/>
			<stop  offset="0.7927" style="stop-color:#0E0803"/>
			<stop  offset="0.8888" style="stop-color:#030201"/>
			<stop  offset="1" style="stop-color:#000000"/>
		</radialGradient>
		<path style="fill:url(#SVGID_13_);" d="M169.1,80c-0.7-1.1-8-3.3-12.1-3.8l-0.7-0.5c0,0-1-0.1-2.7-0.1c-2.7-0.9-4.7-2.5-4.7-2.5
			s-0.7-2.4,0.5-4s6-7.2,8.8-9.6c1.9-1.6,2.7-3,3-3.8l1.3-0.8c0,0-10.8-4.7-17.7,0.4c-6.7,4.9-8.8,8.9-8.1,13l0,0
			c3.9-0.9,7.5-1.5,7.5-0.4c0,2.3-0.5,12.8-2,14.9c-1.5,2-6.8,9.5-7.2,10.4c-0.3,0.7-6.4,6.8-9.6,9.8c0.5,0.7,1.4,1.4,2.5,1.8
			c14.8,10.9,22.3,0.7,24.6-2.2c0.3-0.4,0.7-0.9,1.1-1.4c2-1.4,16.5-11.7,19.1-14C175.5,84.8,169.9,81.2,169.1,80z"/>
		
			<radialGradient id="SVGID_14_" cx="178.9582" cy="213.081" r="34.0603" gradientTransform="matrix(1 0 0 -1 0 256)" gradientUnits="userSpaceOnUse">
			<stop  offset="0" style="stop-color:#FFFAD9"/>
			<stop  offset="1.213081e-02" style="stop-color:#FEF6D3"/>
			<stop  offset="2.771646e-02" style="stop-color:#FCE9C3"/>
			<stop  offset="4.518902e-02" style="stop-color:#F9D5A9"/>
			<stop  offset="6.403458e-02" style="stop-color:#F5B984"/>
			<stop  offset="8.378893e-02" style="stop-color:#F09555"/>
			<stop  offset="8.588960e-02" style="stop-color:#EF9150"/>
			<stop  offset="0.3252" style="stop-color:#CB7232"/>
			<stop  offset="0.3681" style="stop-color:#AF622B"/>
			<stop  offset="0.4479" style="stop-color:#814820"/>
			<stop  offset="0.5306" style="stop-color:#593216"/>
			<stop  offset="0.6152" style="stop-color:#39200E"/>
			<stop  offset="0.7023" style="stop-color:#201208"/>
			<stop  offset="0.7927" style="stop-color:#0E0803"/>
			<stop  offset="0.8888" style="stop-color:#030201"/>
			<stop  offset="1" style="stop-color:#000000"/>
		</radialGradient>
		<path style="fill:url(#SVGID_14_);" d="M191.4,64.1c-2.7,0.3-6.2,1.4-9,1.8c-5.7,0-24.1-0.6-27.2,1.9c-3.7,3-8.8,6.3-9.2,7.9
			l1.9,0.1c0,0-0.6-0.7,2.2-2.7s5.7-4.7,6.4-4.9c0.7-0.2-1.7,2.5,7.2,2.6c-2.8,0.5-6.4,3.6-0.9,1.1c0,0,17.8,1.3,22.7,0.7
			c4.9-0.6,6.7-7.2,9.8-6.5c3.1,0.6,10.5,3.3,13.5,5.6C208.9,71.6,201,63,191.4,64.1z"/>
		
			<radialGradient id="SVGID_15_" cx="143.2272" cy="209.6512" r="17.4053" gradientTransform="matrix(1 0 0 -1 0 256)" gradientUnits="userSpaceOnUse">
			<stop  offset="0" style="stop-color:#FFFAD9"/>
			<stop  offset="2.010555e-03" style="stop-color:#FDF0CC"/>
			<stop  offset="7.888416e-03" style="stop-color:#FAD7AB"/>
			<stop  offset="1.445581e-02" style="stop-color:#F6C18E"/>
			<stop  offset="2.177192e-02" style="stop-color:#F4AF77"/>
			<stop  offset="3.016534e-02" style="stop-color:#F2A266"/>
			<stop  offset="4.027868e-02" style="stop-color:#F09859"/>
			<stop  offset="5.388613e-02" style="stop-color:#EF9352"/>
			<stop  offset="8.588960e-02" style="stop-color:#EF9150"/>
			<stop  offset="0.3252" style="stop-color:#CB7232"/>
			<stop  offset="0.3681" style="stop-color:#AF622B"/>
			<stop  offset="0.4479" style="stop-color:#814820"/>
			<stop  offset="0.5306" style="stop-color:#593216"/>
			<stop  offset="0.6152" style="stop-color:#39200E"/>
			<stop  offset="0.7023" style="stop-color:#201208"/>
			<stop  offset="0.7927" style="stop-color:#0E0803"/>
			<stop  offset="0.8888" style="stop-color:#030201"/>
			<stop  offset="1" style="stop-color:#000000"/>
		</radialGradient>
		<path style="fill:url(#SVGID_15_);" d="M162.5,55c0,0-6.4-3-12.4-1.9c-6.2,1.2-10.9,7.2-10.9,7.2s-3.6,4.7-2.5,8.1
			c0,0,5.3-4.2,7.3-5C146,62.6,156.1,58.9,162.5,55z"/>
		
			<radialGradient id="SVGID_16_" cx="225.2009" cy="229.5189" r="31.0581" gradientTransform="matrix(1 0 0 -1 0 256)" gradientUnits="userSpaceOnUse">
			<stop  offset="0" style="stop-color:#FFFAD9"/>
			<stop  offset="2.010555e-03" style="stop-color:#FDF0CC"/>
			<stop  offset="7.888416e-03" style="stop-color:#FAD7AB"/>
			<stop  offset="1.445581e-02" style="stop-color:#F6C18E"/>
			<stop  offset="2.177192e-02" style="stop-color:#F4AF77"/>
			<stop  offset="3.016534e-02" style="stop-color:#F2A266"/>
			<stop  offset="4.027868e-02" style="stop-color:#F09859"/>
			<stop  offset="5.388613e-02" style="stop-color:#EF9352"/>
			<stop  offset="8.588960e-02" style="stop-color:#EF9150"/>
			<stop  offset="0.3252" style="stop-color:#CB7232"/>
			<stop  offset="0.3681" style="stop-color:#AF622B"/>
			<stop  offset="0.4479" style="stop-color:#814820"/>
			<stop  offset="0.5306" style="stop-color:#593216"/>
			<stop  offset="0.6152" style="stop-color:#39200E"/>
			<stop  offset="0.7023" style="stop-color:#201208"/>
			<stop  offset="0.7927" style="stop-color:#0E0803"/>
			<stop  offset="0.8888" style="stop-color:#030201"/>
			<stop  offset="1" style="stop-color:#000000"/>
		</radialGradient>
		<path style="fill:url(#SVGID_16_);" d="M209.8,61.6c0,0-4.4-11.4,4-16.3s16.1-3.5,22.2,0.5c6.2,4,8.1,6.6,9,10.8
			C245,56.5,232,68.2,209.8,61.6z"/>
		
			<radialGradient id="SVGID_17_" cx="234.2256" cy="142.098" r="46.4757" gradientTransform="matrix(1 0 0 -1 0 256)" gradientUnits="userSpaceOnUse">
			<stop  offset="0" style="stop-color:#FFFAD9"/>
			<stop  offset="2.010555e-03" style="stop-color:#FDF0CC"/>
			<stop  offset="7.888416e-03" style="stop-color:#FAD7AB"/>
			<stop  offset="1.445581e-02" style="stop-color:#F6C18E"/>
			<stop  offset="2.177192e-02" style="stop-color:#F4AF77"/>
			<stop  offset="3.016534e-02" style="stop-color:#F2A266"/>
			<stop  offset="4.027868e-02" style="stop-color:#F09859"/>
			<stop  offset="5.388613e-02" style="stop-color:#EF9352"/>
			<stop  offset="8.588960e-02" style="stop-color:#EF9150"/>
			<stop  offset="0.3252" style="stop-color:#CB7232"/>
			<stop  offset="0.3681" style="stop-color:#AF622B"/>
			<stop  offset="0.4479" style="stop-color:#814820"/>
			<stop  offset="0.5306" style="stop-color:#593216"/>
			<stop  offset="0.6152" style="stop-color:#39200E"/>
			<stop  offset="0.7023" style="stop-color:#201208"/>
			<stop  offset="0.7927" style="stop-color:#0E0803"/>
			<stop  offset="0.8888" style="stop-color:#030201"/>
			<stop  offset="1" style="stop-color:#000000"/>
		</radialGradient>
		<path style="fill:url(#SVGID_17_);" d="M226.7,84.3l0.1-0.2l-0.7,0.5c-1,0.5-2.2,1.2-2.6,1.9l-2.2,1.6l-7.2,2l-4.4,2.8
			c0,0-6,1.6-19.7,4c-0.3,0.1-0.6,0.1-0.9,0.1c-1.8,0-3.1,0.1-3.1,0.1s-1.4-0.4-3.3-1v23c0.8-0.1,2.2-0.2,3.8-0.3l2.2,1.8l14.5,0.4
			c0,0,0-0.2,0.1-0.5l1.1,0.6c0.6-4.6-0.4-10-0.4-10c0.1-1,3.4-5.4,4.8-7.2c2.9-2.1,5.6-4.5,8.4-6.9c4.7-3.9,12.5-14.1,12.5-14.1
			S227.1,84,226.7,84.3z"/>
		
			<radialGradient id="SVGID_18_" cx="221.3032" cy="128.1036" r="31.8699" gradientTransform="matrix(1 0 0 -1 0 256)" gradientUnits="userSpaceOnUse">
			<stop  offset="0" style="stop-color:#FFFAD9"/>
			<stop  offset="2.530790e-03" style="stop-color:#FDEBC6"/>
			<stop  offset="7.569957e-03" style="stop-color:#F9D3A7"/>
			<stop  offset="1.327860e-02" style="stop-color:#F6BF8B"/>
			<stop  offset="1.972266e-02" style="stop-color:#F3AE75"/>
			<stop  offset="2.725124e-02" style="stop-color:#F1A164"/>
			<stop  offset="3.656479e-02" style="stop-color:#F09859"/>
			<stop  offset="4.962813e-02" style="stop-color:#EF9252"/>
			<stop  offset="8.588960e-02" style="stop-color:#EF9150"/>
			<stop  offset="0.3252" style="stop-color:#CB7232"/>
			<stop  offset="0.3681" style="stop-color:#AF622B"/>
			<stop  offset="0.4479" style="stop-color:#814820"/>
			<stop  offset="0.5306" style="stop-color:#593216"/>
			<stop  offset="0.6152" style="stop-color:#39200E"/>
			<stop  offset="0.7023" style="stop-color:#201208"/>
			<stop  offset="0.7927" style="stop-color:#0E0803"/>
			<stop  offset="0.8888" style="stop-color:#030201"/>
			<stop  offset="1" style="stop-color:#000000"/>
		</radialGradient>
		<path style="fill:url(#SVGID_18_);" d="M175.7,119.8c-4.6,1-9.9,2.5-16,4.5v-0.2c-0.6,0.3-1.3,0.6-1.8,1c0,0.1,0,0.1,0,0.1
			c-0.7,0.5-1.6,1.3-1.8,2.1c-0.4,1.5-1.4,6.5,0.3,7.5c-0.3,0.6-0.7,1.8-0.9,3.3c-0.2,2.2,0.1,9.9,0.1,9.9s-0.8,2.2-0.2,3
			c0.5,0.6,5.2,4.6,6.6,5.8c0.2,0.2,0.5,0.6,0.9,1.1c1,1.4,3.2,4.5,4.6,5.6c0.2,0.2,0.5,0.4,0.8,0.7c2,1.7,5.3,4.8,9.3,4.6
			c0,0,0.2-0.5,0.8-1.5v-47.5L175.7,119.8L175.7,119.8z"/>
		
			<radialGradient id="SVGID_19_" cx="133.7104" cy="116.8594" r="36.3419" gradientTransform="matrix(1 0 0 -1 0 256)" gradientUnits="userSpaceOnUse">
			<stop  offset="0" style="stop-color:#FFFAD9"/>
			<stop  offset="2.530790e-03" style="stop-color:#FDEBC6"/>
			<stop  offset="7.569957e-03" style="stop-color:#F9D3A7"/>
			<stop  offset="1.327860e-02" style="stop-color:#F6BF8B"/>
			<stop  offset="1.972266e-02" style="stop-color:#F3AE75"/>
			<stop  offset="2.725124e-02" style="stop-color:#F1A164"/>
			<stop  offset="3.656479e-02" style="stop-color:#F09859"/>
			<stop  offset="4.962813e-02" style="stop-color:#EF9252"/>
			<stop  offset="8.588960e-02" style="stop-color:#EF9150"/>
			<stop  offset="0.3252" style="stop-color:#CB7232"/>
			<stop  offset="0.3681" style="stop-color:#AF622B"/>
			<stop  offset="0.4479" style="stop-color:#814820"/>
			<stop  offset="0.5306" style="stop-color:#593216"/>
			<stop  offset="0.6152" style="stop-color:#39200E"/>
			<stop  offset="0.7023" style="stop-color:#201208"/>
			<stop  offset="0.7927" style="stop-color:#0E0803"/>
			<stop  offset="0.8888" style="stop-color:#030201"/>
			<stop  offset="1" style="stop-color:#000000"/>
		</radialGradient>
		<path style="fill:url(#SVGID_19_);" d="M175.7,119.8c-4.6,1-9.9,2.5-16,4.5v-0.2c-0.6,0.3-1.3,0.6-1.8,1c0,0.1,0,0.1,0,0.1
			c-0.7,0.5-1.6,1.3-1.8,2.1c-0.4,1.5-1.4,6.5,0.3,7.5c-0.3,0.6-0.7,1.8-0.9,3.3c-0.2,2.2,0.1,9.9,0.1,9.9s-0.8,2.2-0.2,3
			c0.5,0.6,5.2,4.6,6.6,5.8c0.2,0.2,0.5,0.6,0.9,1.1c1,1.4,3.2,4.5,4.6,5.6c0.2,0.2,0.5,0.4,0.8,0.7c2,1.7,5.3,4.8,9.3,4.6
			c0,0,0.2-0.5,0.8-1.5v-47.5L175.7,119.8L175.7,119.8z"/>
		
			<radialGradient id="SVGID_20_" cx="157.1693" cy="141.9114" r="26.4388" gradientTransform="matrix(1 0 0 -1 0 256)" gradientUnits="userSpaceOnUse">
			<stop  offset="0" style="stop-color:#FFFAD9"/>
			<stop  offset="2.010555e-03" style="stop-color:#FDF0CC"/>
			<stop  offset="7.888416e-03" style="stop-color:#FAD7AB"/>
			<stop  offset="1.445581e-02" style="stop-color:#F6C18E"/>
			<stop  offset="2.177192e-02" style="stop-color:#F4AF77"/>
			<stop  offset="3.016534e-02" style="stop-color:#F2A266"/>
			<stop  offset="4.027868e-02" style="stop-color:#F09859"/>
			<stop  offset="5.388613e-02" style="stop-color:#EF9352"/>
			<stop  offset="8.588960e-02" style="stop-color:#EF9150"/>
			<stop  offset="0.3252" style="stop-color:#CB7232"/>
			<stop  offset="0.3681" style="stop-color:#AF622B"/>
			<stop  offset="0.4479" style="stop-color:#814820"/>
			<stop  offset="0.5306" style="stop-color:#593216"/>
			<stop  offset="0.6152" style="stop-color:#39200E"/>
			<stop  offset="0.7023" style="stop-color:#201208"/>
			<stop  offset="0.7927" style="stop-color:#0E0803"/>
			<stop  offset="0.8888" style="stop-color:#030201"/>
			<stop  offset="1" style="stop-color:#000000"/>
		</radialGradient>
		<path style="fill:url(#SVGID_20_);" d="M135,93.3c0.4-0.9,5.7-8.4,7.2-10.4s2-12.5,2-14.9c0-1.1-3.6-0.5-7.5,0.4
			c-0.2,0.2-0.4,0.5-0.6,0.7c-0.1,0.1-0.2,0.1-0.3,0.2c-7,4.8-6.5,12-6.3,13.7c-2.6,3.7-2.8,5.4-3,7.2c-0.2,2.2-1.9,10.5-1.7,11.5
			c0,0.4,0.3,0.8,0.6,1.3C128.6,100.1,134.7,94,135,93.3z"/>
		
			<radialGradient id="SVGID_21_" cx="117.2169" cy="192.738" r="28.3915" gradientTransform="matrix(1 0 0 -1 0 256)" gradientUnits="userSpaceOnUse">
			<stop  offset="0" style="stop-color:#FFFAD9"/>
			<stop  offset="2.010555e-03" style="stop-color:#FDF0CC"/>
			<stop  offset="7.888416e-03" style="stop-color:#FAD7AB"/>
			<stop  offset="1.445581e-02" style="stop-color:#F6C18E"/>
			<stop  offset="2.177192e-02" style="stop-color:#F4AF77"/>
			<stop  offset="3.016534e-02" style="stop-color:#F2A266"/>
			<stop  offset="4.027868e-02" style="stop-color:#F09859"/>
			<stop  offset="5.388613e-02" style="stop-color:#EF9352"/>
			<stop  offset="8.588960e-02" style="stop-color:#EF9150"/>
			<stop  offset="0.3252" style="stop-color:#CB7232"/>
			<stop  offset="0.3681" style="stop-color:#AF622B"/>
			<stop  offset="0.4479" style="stop-color:#814820"/>
			<stop  offset="0.5306" style="stop-color:#593216"/>
			<stop  offset="0.6152" style="stop-color:#39200E"/>
			<stop  offset="0.7023" style="stop-color:#201208"/>
			<stop  offset="0.7927" style="stop-color:#0E0803"/>
			<stop  offset="0.8888" style="stop-color:#030201"/>
			<stop  offset="1" style="stop-color:#000000"/>
		</radialGradient>
		<path style="fill:url(#SVGID_21_);" d="M135,93.3c0.4-0.9,5.7-8.4,7.2-10.4s2-12.5,2-14.9c0-1.1-3.6-0.5-7.5,0.4
			c-0.2,0.2-0.4,0.5-0.6,0.7c-0.1,0.1-0.2,0.1-0.3,0.2c-7,4.8-6.5,12-6.3,13.7c-2.6,3.7-2.8,5.4-3,7.2c-0.2,2.2-1.9,10.5-1.7,11.5
			c0,0.4,0.3,0.8,0.6,1.3C128.6,100.1,134.7,94,135,93.3z"/>
		
			<radialGradient id="SVGID_22_" cx="230.0683" cy="45.7783" r="60.3207" gradientTransform="matrix(1 0 0 -1.0957 0 269.2819)" gradientUnits="userSpaceOnUse">
			<stop  offset="0" style="stop-color:#FFFAD9"/>
			<stop  offset="1.213081e-02" style="stop-color:#FEF6D3"/>
			<stop  offset="2.771646e-02" style="stop-color:#FCE9C3"/>
			<stop  offset="4.518902e-02" style="stop-color:#F9D5A9"/>
			<stop  offset="6.403458e-02" style="stop-color:#F5B984"/>
			<stop  offset="8.378893e-02" style="stop-color:#F09555"/>
			<stop  offset="8.588960e-02" style="stop-color:#EF9150"/>
			<stop  offset="0.3252" style="stop-color:#CB7232"/>
			<stop  offset="0.3681" style="stop-color:#AF622B"/>
			<stop  offset="0.4479" style="stop-color:#814820"/>
			<stop  offset="0.5306" style="stop-color:#593216"/>
			<stop  offset="0.6152" style="stop-color:#39200E"/>
			<stop  offset="0.7023" style="stop-color:#201208"/>
			<stop  offset="0.7927" style="stop-color:#0E0803"/>
			<stop  offset="0.8888" style="stop-color:#030201"/>
			<stop  offset="1" style="stop-color:#000000"/>
		</radialGradient>
		<path style="fill:url(#SVGID_22_);" d="M207.6,312.2c-1-3.6-2.5-6.5-2-7.8s0.7-5.1-2-8.3c-2.6-3.3-7.3-8.9-6.1-13.4
			s7.4-19,7.8-25.1c0.3-6.1-1.8-10.3-5.6-15.7s-7.3-9.6-6.4-15.5c0.8-6,2.1-13.4,2.1-13.4l-1.5-2.4l-1.9-4.8
			c0.1-0.3,0.1-0.5,0.1-0.5l-10.2-33.7c0,0-0.7-1.9-0.9-1.9l-1.6-3.5c0,0-17.3-25.6-22.2-13.3l1.4,26.2c-0.1,0.6-0.2,1.2-0.2,1.8
			c0.7-0.9,1-1.3,2.1-0.9c1.6,0.6,9.1,12.5,9.7,15.6c0.6,3.1,2.2,9.7,2.8,16.2c0.6,6.6,1.6,13.4,1.9,15.6c0.3,2.2,0.3,7.5,1.6,11.2
			c1.2,3.7,2.2,10.3,3.7,14.7c1.6,4.4,5.3,11.2,5.3,16.9c0,4.7,0.2,14.5-1.6,15.5c0.3,5.2,0.3,10.4-0.8,12.3
			c-2.1,4-12.2,15.4-14.2,16.3s-12.5-1.4-13.9,11.2c0,0,15.7,2,21.3,1.4c5.6-0.5,12.9-1.3,16.3-1.1c3.5,0.2,15.5-1.1,15.9-2.3
			C209.1,322.3,208.6,315.8,207.6,312.2z"/>
		
			<radialGradient id="SVGID_23_" cx="140.6966" cy="34.5554" r="49.0127" gradientTransform="matrix(1 0 0 -1.0957 0 269.2819)" gradientUnits="userSpaceOnUse">
			<stop  offset="0" style="stop-color:#FFFAD9"/>
			<stop  offset="1.213081e-02" style="stop-color:#FEF6D3"/>
			<stop  offset="2.771646e-02" style="stop-color:#FCE9C3"/>
			<stop  offset="4.518902e-02" style="stop-color:#F9D5A9"/>
			<stop  offset="6.403458e-02" style="stop-color:#F5B984"/>
			<stop  offset="8.378893e-02" style="stop-color:#F09555"/>
			<stop  offset="8.588960e-02" style="stop-color:#EF9150"/>
			<stop  offset="0.3252" style="stop-color:#CB7232"/>
			<stop  offset="0.3681" style="stop-color:#AF622B"/>
			<stop  offset="0.4479" style="stop-color:#814820"/>
			<stop  offset="0.5306" style="stop-color:#593216"/>
			<stop  offset="0.6152" style="stop-color:#39200E"/>
			<stop  offset="0.7023" style="stop-color:#201208"/>
			<stop  offset="0.7927" style="stop-color:#0E0803"/>
			<stop  offset="0.8888" style="stop-color:#030201"/>
			<stop  offset="1" style="stop-color:#000000"/>
		</radialGradient>
		<path style="fill:url(#SVGID_23_);" d="M192.9,269.7c0-5.6-3.7-14.7-5.3-19c-1.6-4.4-3.7-9.1-5-12.8c-1.2-3.7-1.9-7.8-2.2-10
			s-0.9-10.3-1.6-16.9c-0.6-6.6-3.1-12.8-3.7-15.9c-0.6-3.1-12.5-15.6-14.1-16.2c-1.1-0.4-2,1.3-2.7,2.2c-0.2,1.6-0.3,3.1-0.3,4.2
			c0,4.7,1.2,15,2.8,19.9s5.6,15.4,5.6,15.4l3.1,6.9c0,0-0.7,12.6,1.2,16.3c1.8,3.6,6.6,11.4,6.6,11.4s4.8,14.5,5.3,17.9
			c0.3,1.8,1,7.4,1.3,13C185.6,284.9,192.9,274.5,192.9,269.7z"/>
		
			<radialGradient id="SVGID_24_" cx="176.8598" cy="19.3165" r="74.5608" fx="156.387" fy="20.4755" gradientTransform="matrix(1 0 0 -1.0957 0 269.2819)" gradientUnits="userSpaceOnUse">
			<stop  offset="0" style="stop-color:#FFFAD9"/>
			<stop  offset="1.213081e-02" style="stop-color:#FEF6D3"/>
			<stop  offset="2.771646e-02" style="stop-color:#FCE9C3"/>
			<stop  offset="4.518902e-02" style="stop-color:#F9D5A9"/>
			<stop  offset="6.403458e-02" style="stop-color:#F5B984"/>
			<stop  offset="8.378893e-02" style="stop-color:#F09555"/>
			<stop  offset="8.588960e-02" style="stop-color:#EF9150"/>
			<stop  offset="0.3252" style="stop-color:#CB7232"/>
			<stop  offset="0.3645" style="stop-color:#AF622B"/>
			<stop  offset="0.4385" style="stop-color:#814820"/>
			<stop  offset="0.5152" style="stop-color:#593216"/>
			<stop  offset="0.5935" style="stop-color:#39200E"/>
			<stop  offset="0.6741" style="stop-color:#201208"/>
			<stop  offset="0.7578" style="stop-color:#0E0803"/>
			<stop  offset="0.8465" style="stop-color:#030201"/>
			<stop  offset="0.9491" style="stop-color:#000000"/>
		</radialGradient>
		<path style="fill:url(#SVGID_24_);" d="M256.2,314.8c-0.4-1.3-2.5-10-2.5-10s0.1-0.4,0.2-1c-3.1-1.6-6.6-3.6-8.1-5.3
			c-3-3.5-8.2-13.1-9.4-17.1s-4-18-4.7-23.4s-12.6-20.6-12.6-22.9c0-2.3-4.2-44.7-4.2-49.4c0-2.6,3.8-7,7.1-10.4
			c-2.3-4-8-13.4-8-13.4l-6-17.2c0,0-22.5,5.3-27.3,14.1c0,0-2.2,5.7-2.6,9.1l-2.3,0.5c0,0,1.4,2.6,2.8,5.6c0.4,0.6,0.7,1.4,1.2,2.4
			c1.2,3.4,2.8,7.6,4.3,11.5c3.4,9.4,7.6,21.5,8.6,23.2c1.4,2.3,12,17.3,19.3,27.3c0.2,2.1,0.5,3.7,0.8,4.2c0.1,0.2,0.4,0.6,0.7,1.2
			c0.1,4.8,0.5,17,2.1,19.1c2,2.5,7.1,7.6,8.9,11c1.8,3.4,6.4,16.8,6.1,18.1c-0.3,1.3-1.8,8-1.3,9.2c0.5,1.3,2.6,5.1,2.6,5.1
			s-1.6,11.4-2.3,11.9l1.3-0.9l-2.3,3.9c0,0-0.5,3.1-0.3,4.9c0.1,1.3,14.6,1.8,22.7,2l3.7,0.4c0,0,0-0.1,0-0.3
			c0.9,0,1.5,0.1,1.7,0.1c1,0.2,2.3-4.2,2.3-4.2l-3.2-7.1C256.3,317,256.8,316.8,256.2,314.8z"/>
		
			<radialGradient id="SVGID_25_" cx="247.033" cy="84.7177" r="44.4253" gradientTransform="matrix(1 0 0 -1.0957 0 269.2819)" gradientUnits="userSpaceOnUse">
			<stop  offset="0" style="stop-color:#FFFAD9"/>
			<stop  offset="1.213081e-02" style="stop-color:#FEF6D3"/>
			<stop  offset="2.771646e-02" style="stop-color:#FCE9C3"/>
			<stop  offset="4.518902e-02" style="stop-color:#F9D5A9"/>
			<stop  offset="6.403458e-02" style="stop-color:#F5B984"/>
			<stop  offset="8.378893e-02" style="stop-color:#F09555"/>
			<stop  offset="8.588960e-02" style="stop-color:#EF9150"/>
			<stop  offset="0.3252" style="stop-color:#CB7232"/>
			<stop  offset="0.3681" style="stop-color:#AF622B"/>
			<stop  offset="0.4479" style="stop-color:#814820"/>
			<stop  offset="0.5306" style="stop-color:#593216"/>
			<stop  offset="0.6152" style="stop-color:#39200E"/>
			<stop  offset="0.7023" style="stop-color:#201208"/>
			<stop  offset="0.7927" style="stop-color:#0E0803"/>
			<stop  offset="0.8888" style="stop-color:#030201"/>
			<stop  offset="1" style="stop-color:#000000"/>
		</radialGradient>
		<path style="fill:url(#SVGID_25_);" d="M216.1,235.9c0,2.3,6.8,20.1,7.5,25.5s11.7,15.9,12.9,19.9s6.3,13.6,9.4,17.1
			c1.5,1.8,5,3.8,8.1,5.3c0.2-1.1,0.5-3,0.3-4.4c-0.3-2.2-5.4-9-5.9-9.8c-0.5-0.7-3.1-6-3.8-8.3s-1.6-11.9-1.5-15.2
			c0.2-3.3,2-12.3,1.6-15.2c-0.3-2.5-7.1-11.6-9.8-14.6c-0.3-0.5-0.6-0.9-0.9-1.4c-0.8-2.2-1.9-5.1-2.1-6.4c-0.4-2-3.2-7.8-4.2-14.5
			c-0.9-6.4-3.3-25.3-3.6-27.3c0-1.6,0.7-0.7,0.2-6.3s-7.8-16.8-8.2-17.6c-6.6,4.2-6.3,17.3-7.5,19.7
			C203.7,191.9,216.1,233.6,216.1,235.9z"/>
		
			<radialGradient id="SVGID_26_" cx="224.1133" cy="127.1667" r="31.8693" gradientTransform="matrix(1 0 0 -1 0 256)" gradientUnits="userSpaceOnUse">
			<stop  offset="0" style="stop-color:#FFFAD9"/>
			<stop  offset="2.530790e-03" style="stop-color:#FDEBC6"/>
			<stop  offset="7.569957e-03" style="stop-color:#F9D3A7"/>
			<stop  offset="1.327860e-02" style="stop-color:#F6BF8B"/>
			<stop  offset="1.972266e-02" style="stop-color:#F3AE75"/>
			<stop  offset="2.725124e-02" style="stop-color:#F1A164"/>
			<stop  offset="3.656479e-02" style="stop-color:#F09859"/>
			<stop  offset="4.962813e-02" style="stop-color:#EF9252"/>
			<stop  offset="8.588960e-02" style="stop-color:#EF9150"/>
			<stop  offset="0.3252" style="stop-color:#CB7232"/>
			<stop  offset="0.3681" style="stop-color:#AF622B"/>
			<stop  offset="0.4479" style="stop-color:#814820"/>
			<stop  offset="0.5306" style="stop-color:#593216"/>
			<stop  offset="0.6152" style="stop-color:#39200E"/>
			<stop  offset="0.7023" style="stop-color:#201208"/>
			<stop  offset="0.7927" style="stop-color:#0E0803"/>
			<stop  offset="0.8888" style="stop-color:#030201"/>
			<stop  offset="1" style="stop-color:#000000"/>
		</radialGradient>
		<path style="fill:url(#SVGID_26_);" d="M209.8,144.7c0,0-1.9-13.7-4.1-15.9c0.3-1.5,1.1-6.4-1.2-7.7c-0.4-0.3-7-6-28.7-1.4h2.6
			v47.5c1.5-2.4,5.2-7.5,12.4-12.1c5.4-3.4,9.7-5.9,12.9-7.2l3.2-0.9c1.2-0.2,2.3,0,3,0.5l0.6,1.2
			C210.6,148.7,211,145.6,209.8,144.7z"/>
	</g>
</g>
</svg>
